<svg width="450" height="348" viewBox="0 0 450 348" fill="none" xmlns="http://www.w3.org/2000/svg">
<path d="M432.157 83.8518C432.76 84.6662 434.947 83.8364 439.297 82.1439C442.604 80.8573 443.113 80.3891 443.428 80.0535C444.534 78.8734 444.824 77.6324 445.919 72.1503C447.885 62.3106 447.946 61.3335 448.955 59.2455C449.303 58.5264 450.181 56.8113 449.967 56.5987C449.747 56.3803 448.796 58.1671 447.04 58.8422C445.328 59.5001 444.558 58.4461 443.096 58.7145C441.207 59.0615 440.084 61.2656 438.322 64.8331C436.762 67.9924 436.566 69.2634 434.378 75.5406C433.758 77.3188 433.259 78.6952 432.876 79.7829C428.581 84.7063 424.322 89.6947 420.101 94.7264C420.182 94.5735 420.259 94.4294 420.325 94.3041C422.195 90.7783 422.449 88.8881 422.422 87.4717C422.378 85.177 421.486 83.4292 419.703 80.0272C417.956 76.6934 416.301 74.4937 414.306 71.8688C411.692 68.428 410.385 66.7075 409.865 66.8207C406.147 67.6289 405.152 98.7232 409.83 104.284C409.174 104.86 408.63 105.464 408.237 106.057C404.232 100.597 397.373 94.4955 389.774 93.7444C385.089 93.2812 382.503 95.0869 381.699 95.7071C377.983 98.5737 375.774 104.311 376.883 105.93C377.918 107.44 380.907 104.008 386.764 104.197C390.85 104.329 394.043 106.15 395.938 107.231C399.914 109.499 401.368 111.729 404.299 113.256C402.925 114.647 401.836 116.383 401.153 118.002C400.916 118.302 400.68 118.603 400.443 118.903C397.419 116.81 394.013 115.274 390.443 114.921C385.758 114.458 383.172 116.264 382.368 116.884C379.864 118.816 378.049 122.049 377.468 124.449C377.089 124.543 376.737 124.65 376.416 124.765C375.28 121.614 371.902 118.291 368.76 116.616C363.353 113.733 356.329 114.497 355.577 117.238C355.553 117.326 355.547 117.412 355.536 117.498C356.129 111.624 356.934 105.791 357.94 99.9999C357.974 100.165 358.016 100.332 358.074 100.508C359.408 104.626 363.015 108.579 367.932 110.629C371.791 112.239 373.408 111.405 373.818 111.172C374.21 110.949 375.905 110.056 376.32 108.28C377.089 104.987 372.376 95.2563 369.404 98.5203C359.853 109.007 358.542 100.515 358.103 99.0861C358.915 94.5079 359.85 89.9559 360.898 85.4299C360.916 85.4575 360.932 85.4847 360.951 85.5126C363.037 88.621 367.053 90.8109 371.773 90.9077C375.476 90.9836 376.687 89.7102 376.989 89.3683C377.278 89.0418 378.542 87.6907 378.5 86.012C378.421 82.8998 373.914 80.365 370.307 79.9255C366.983 79.5205 363.405 80.7703 361.629 82.353C362.455 78.9636 363.343 75.5889 364.29 72.2289C366.715 73.4458 370.151 73.2821 373.526 71.4289C376.31 69.9008 376.851 68.4334 376.98 68.049C377.103 67.6818 377.662 66.1334 377.154 64.8998C376.213 62.6128 372.133 62.6515 369.319 63.867C368.16 64.3676 367.058 65.1378 366.114 66.0085C367.792 60.5012 369.622 55.0332 371.59 49.6055L369.618 49C367.104 55.9336 364.913 62.9575 363.029 70.0592C362.795 67.9764 362.208 65.7576 361.436 63.9549C359.163 58.6545 354.31 54.6779 352.669 55.9681C352.341 56.2262 352.203 56.6465 352.078 57.1469C351.072 61.1736 351.829 66.7384 354.479 71.8512C356.558 75.864 358.16 76.4273 358.577 76.5547C358.929 76.6623 360.289 77.1235 361.407 76.5294C360.655 79.6932 359.96 82.8708 359.326 86.0625C358.564 83.7366 357.061 81.2585 355.471 79.5448C351.806 75.5933 346.116 74.012 344.959 75.9379C344.727 76.3231 344.721 76.7764 344.75 77.2986C344.983 81.5009 347.311 86.3646 351.274 89.975C354.385 92.8087 356.045 92.631 356.471 92.5667C356.722 92.5289 357.481 92.4361 358.213 92.0297C357.534 95.9077 356.94 99.8046 356.427 103.718C355.401 99.3402 351.914 93.8788 348.623 95.6163C342.784 98.6994 335.92 93.9635 335.165 96.0345C334.968 96.5734 335.131 97.1289 335.319 97.7319C336.832 102.583 341.01 107.284 346.747 109.78C351.249 111.74 353.154 110.793 353.638 110.527C353.959 110.351 355.018 109.808 355.807 108.8C355.24 113.828 354.805 118.882 354.499 123.958C353.282 120.693 349.853 117.254 346.642 115.48C341.011 112.369 333.647 113.051 332.829 115.909C332.665 116.481 332.794 117.033 332.987 117.652C334.54 122.631 338.828 127.456 344.716 130.018C349.338 132.029 351.293 131.057 351.79 130.785C352.153 130.586 353.435 129.928 354.253 128.679C354.148 131.025 354.067 133.376 354.016 135.731C354.001 136.401 353.993 137.072 353.982 137.743C353.916 137.875 353.858 138.009 353.819 138.15C353.662 138.726 353.769 139.279 353.954 139.884C353.95 140.31 353.948 140.736 353.946 141.162C352.915 140.015 351.686 138.29 350.208 135.832C348.874 133.615 347.608 135.242 346.794 137.13C345.519 136.781 344.302 136.997 343.345 138.095C336.929 145.457 329.732 141.551 329.63 143.746C329.6 144.38 329.877 144.884 330.225 145.43C333.027 149.826 338.527 153.033 345.061 153.371C350.189 153.636 351.902 151.924 352.331 151.464C352.481 151.302 352.819 150.953 353.185 150.462C353.479 150.75 353.764 151.011 354.051 151.25C354.164 155.464 354.366 159.674 354.665 163.875C354.422 163.902 354.189 163.951 354.016 163.973C351.532 164.284 350.695 160.168 346.942 158.664C345.696 158.164 343.295 157.619 342.03 158.664C341.848 158.814 341.226 159.38 340.262 159.87C339.692 160.16 339.256 160.295 339.083 160.353C337.543 160.87 336.117 162.29 335.153 163.249C333.341 165.053 332.435 165.955 332.009 167.593C331.876 168.109 331.499 169.559 332.009 170.972C332.251 171.639 332.81 172.632 334.957 173.626C336.232 174.217 339.953 175.941 344.388 174.109C345.398 173.692 344.627 173.841 348.514 171.454C351.572 169.576 353.361 168.679 353.623 166.869C353.715 166.233 353.622 165.457 354.016 165.18C354.235 165.026 354.499 165.101 354.763 165.217C355.021 168.595 355.342 171.968 355.731 175.334H352.232C347.585 175.334 343.416 178.51 341.353 183.624L328.263 216.06C327.437 218.107 327 220.397 327 222.682V306.086C327 314.31 332.447 321 339.142 321H369.696C376.391 321 381.838 314.31 381.838 306.086V229.287C381.838 227.415 381.555 225.582 380.998 223.839L368.523 184.799C367.01 180.064 363.733 176.715 359.816 175.678C361.072 173.848 362.331 172.02 363.599 170.198C365.196 171.144 366.952 171.921 368.841 172.467C373.838 173.909 375.782 172.623 376.274 172.27C376.743 171.932 378.779 170.56 379.124 168.272C379.161 168.027 379.175 167.778 379.173 167.529C384.291 172.639 386.961 175.158 388.912 174.318C390.589 173.596 391.546 171.23 392.094 169.106C392.667 169.204 393.274 169.304 393.921 169.41C400.931 170.56 404.464 171.093 405.815 169.054C407.685 166.231 405.91 160.789 405.421 159.289C404.357 156.029 402.722 154.046 401.705 152.839C400.386 151.272 396.625 146.806 390.704 146.21C389.417 146.08 388.261 146.18 387.083 146.483C386.673 146.022 386.239 145.57 385.763 145.141C384.854 144.323 383.956 143.717 382.99 143.244C384.472 141.25 385.958 139.262 387.451 137.282C387.687 137.414 387.912 137.542 388.118 137.66C393.009 140.45 394.083 143.182 398.787 144.62C400.92 145.272 403.336 146.011 403.934 144.901C404.997 142.928 400.487 134.809 393.518 129.316C393.988 128.705 394.459 128.096 394.93 127.487C395.567 127.815 396.129 128.135 396.607 128.408C401.498 131.198 402.572 133.93 407.276 135.368C409.41 136.021 411.825 136.759 412.424 135.649C413.372 133.888 409.883 127.234 404.171 121.918C405.74 121.306 407.821 120.627 410.515 120.714C414.602 120.846 417.794 122.667 419.69 123.749C424.58 126.539 425.655 129.271 430.358 130.709C432.492 131.361 434.908 132.1 435.506 130.99C437.085 128.056 426.358 111.53 413.525 110.262C412.529 110.163 411.634 110.172 410.824 110.245C410.712 110.017 410.591 109.784 410.463 109.546C414.805 109.718 423.284 108.193 430.502 114.417C432.583 116.211 436.625 120.433 443.391 123.901C445.554 125.01 446.641 125.555 446.941 125.099C448.013 123.47 439.099 110.06 426.558 103.454C421.586 100.835 418.514 100.587 416.329 100.984C416.665 100.512 416.994 100.025 417.31 99.5365C422.193 93.654 427.138 87.8329 432.127 82.0903C431.885 83.0075 431.893 83.4957 432.157 83.8518ZM369.49 157.067C363.975 154.874 357.296 156.052 355.554 158.547C355.309 156.336 355.095 154.121 354.92 151.902C357.432 153.625 360.054 154.087 365.028 154.903C367.147 155.25 368.942 155.539 370.461 155.72C370.665 156.399 370.883 157.011 371.136 157.595C371.165 157.663 371.196 157.728 371.226 157.795L371.182 157.857C370.616 157.555 370.048 157.289 369.49 157.067ZM354.836 127.355C354.993 126.714 354.997 126.031 354.877 125.328C355.048 122.778 355.262 120.236 355.516 117.702C355.509 118.09 355.61 118.478 355.746 118.899C357.279 123.629 361.423 128.169 367.07 130.525C368.124 130.964 369.027 131.241 369.806 131.41C369.463 132.143 369.201 132.858 369.027 133.518C367.102 131.618 364.623 130.237 361.811 131.703C361.046 132.102 360.592 133.561 360.197 135.305C357.6 135.36 355.429 136.026 354.395 137.152C354.4 136.683 354.399 136.214 354.409 135.743C354.467 133.062 354.575 130.389 354.726 127.724C354.768 127.605 354.805 127.482 354.836 127.355ZM354.402 141.148C354.514 141.43 354.637 141.71 354.764 141.989C354.649 141.885 354.53 141.773 354.409 141.651C354.406 141.483 354.405 141.316 354.402 141.148ZM358.838 175.472C358.535 175.423 358.23 175.387 357.922 175.366C357.211 171.03 356.554 166.697 356.005 162.355C357.45 165.173 359.809 167.752 362.813 169.708C361.48 171.624 360.158 173.547 358.838 175.472ZM382.117 142.86C380.236 142.118 378.029 141.763 374.974 141.327C374.2 140.006 373.402 139.032 372.812 138.332C372.493 137.952 372.002 137.2 371.367 136.319C373.013 135.67 375.471 134.513 378.943 134.625C382.099 134.727 384.719 135.836 386.622 136.834C385.114 138.835 383.614 140.844 382.117 142.86ZM392.777 128.748C390.929 127.377 388.924 126.202 386.814 125.377C387.019 125.374 387.22 125.367 387.433 125.374C390.05 125.458 392.297 126.235 394.075 127.067C393.642 127.628 393.209 128.187 392.777 128.748Z" fill="#E6E6E6"/>
<path d="M185.81 109.578L220.543 97L229.355 109.578C229.355 109.578 261.206 114.295 270.525 140.501C279.843 166.706 315 299.828 315 299.828L268.619 309L204.236 244.535C204.236 244.535 183.904 232.993 185.81 205.221C186.899 189.356 183.771 169.725 180.89 155.809C178.525 144.389 180.947 132.261 187.293 123.467L185.81 109.578Z" fill="#5BBA6F"/>
<path d="M1.91304 341.009C-0.354791 336.611 -0.622616 331.177 1.19675 326.473L28.2328 256.586C30.2506 251.37 34.5882 248 39.2834 248H380.77C385.334 248 389.487 251.089 391.607 256.062L420.586 324.023C422.589 328.721 422.457 334.239 420.233 338.784C418.01 343.328 414.108 346.054 409.797 346.075L12.2955 348H12.2457C8.03181 348 4.17167 345.39 1.91304 341.009Z" fill="white"/>
<path d="M1.91304 341.009C-0.354791 336.611 -0.622616 331.177 1.19675 326.473L28.2328 256.586C30.2506 251.37 34.5882 248 39.2834 248H380.77C385.334 248 389.487 251.089 391.607 256.062L420.586 324.023C422.589 328.721 422.457 334.239 420.233 338.784C418.01 343.328 414.108 346.054 409.797 346.075L12.2955 348H12.2457C8.03181 348 4.17167 345.39 1.91304 341.009ZM39.2834 249.58C35.081 249.58 31.1987 252.597 29.3927 257.265L2.35669 327.152C0.728216 331.362 0.967814 336.225 2.99772 340.162C5.01947 344.084 8.474 346.42 12.2459 346.42H12.2904L409.792 344.495C413.651 344.476 417.143 342.036 419.133 337.968C421.123 333.901 421.241 328.962 419.449 324.758L390.47 256.796C388.572 252.345 384.855 249.58 380.77 249.58H39.2834Z" fill="#3F3D56"/>
<path d="M78.6354 134.829C73.8703 127.101 66.7296 123.827 62.6867 127.516C58.6438 131.206 59.2301 140.46 63.9977 148.19C65.8674 151.309 68.3241 153.839 71.1623 155.567L91.6923 188L104 175.957L82.4544 145.262C81.8847 141.463 80.5752 137.886 78.6354 134.829Z" fill="#FFB6B6"/>
<path d="M189.136 112C189.136 112 214.1 125.514 214 139.882C213.899 154.25 167.949 249.595 167.949 249.595C167.949 249.595 148.211 265.186 141.502 256.22C134.793 247.254 79 175.464 79 175.464L94.2001 152.871L149.394 212.687L189.136 112Z" fill="#5BBA6F"/>
<path d="M252.739 291L260 319.636L175 326L182.261 293.652L252.739 291Z" fill="#E6E6E6"/>
<path d="M158.739 288L166 316.636L81 323L88.2613 290.652L158.739 288Z" fill="#E6E6E6"/>
<path d="M367.739 269L375 297.636L290 304L297.261 271.652L367.739 269Z" fill="#E6E6E6"/>
<path d="M200.418 269.139L178.58 255.935C178.43 255.844 178.265 255.799 178.098 255.804L127.697 257.141L112.359 186.325C112.321 186.149 112.209 186.012 112.066 185.966L93.5151 180.017C93.2076 179.918 92.9293 180.268 93.0161 180.644L111.404 260.28C111.434 260.409 111.505 260.519 111.6 260.584L130.507 273.443C130.653 273.542 130.809 273.516 130.928 273.421L131.029 273.563C131.233 273.851 131.531 274.011 131.842 273.999L199.989 271.564C201.073 271.525 201.391 269.727 200.418 269.139Z" fill="#333D29"/>
<path d="M179.081 250.184C171.187 250.406 164.883 255.469 165.002 261.492C165.12 267.515 171.616 272.216 179.513 271.992C182.669 271.955 185.771 271.012 188.56 269.243L222 267.797L221.099 249L188.229 252.421C185.373 250.811 182.236 250.044 179.081 250.184Z" fill="#FFB6B6"/>
<path d="M228.676 126.171C228.676 126.171 252.216 108.927 261.632 117.288C271.048 125.648 307 226.495 307 226.495C307 226.495 305.716 255.234 295.872 256.802C286.028 258.369 205.992 273 205.992 273L200 244.784L257.352 224.405L228.676 126.171Z" fill="#5BBA6F"/>
<path d="M203.595 91.916C185.898 98.1066 167.802 87.0208 163.175 67.1551C158.548 47.2895 169.143 26.1667 186.84 19.9762C204.537 13.7856 222.633 24.8714 227.26 44.737C231.887 64.6027 221.292 85.7254 203.595 91.916Z" fill="#FFB6B6"/>
<path d="M208.904 81.2817L204.662 63.0643L190.845 50.5614L192.496 42.0448L192 32.1086C192 32.1086 172.502 49.8333 163.761 51.3194C155.02 52.8055 159.95 50.5625 157.042 49.7813C154.134 49.0002 147.313 43.1233 153.106 32.8823C158.899 22.6414 152.594 22.7893 168.572 19.2577C184.549 15.7261 204.715 8.67175 209.405 13.2039C214.096 17.7361 214.982 21.5414 214.982 21.5414C214.982 21.5414 235.591 16.3897 230.216 63.5385L226.688 87.4068L221.554 80.972C221.554 80.972 220.041 58.8672 216.772 68.2414C213.503 77.6155 208.904 81.2817 208.904 81.2817Z" fill="#333D29"/>
</svg>
