<svg width="68" height="73" viewBox="0 0 68 73" fill="none" xmlns="http://www.w3.org/2000/svg">
<path d="M61.9986 0.577258C61.622 0.0360737 60.9099 -0.152233 60.3149 0.131018C52.7953 3.71676 41.7864 11.094 33.4867 25.5524C38.2972 32.8569 42.4669 42.2611 44.6538 54.2336C44.9402 42.269 47.3138 16.4789 61.8324 2.31158C62.3056 1.85268 62.3736 1.11844 61.9986 0.577258Z" fill="#137547"/>
<path d="M12.3979 10.9262C12.1732 10.7775 11.9169 10.7063 11.6605 10.7063C11.295 10.7063 10.931 10.855 10.6668 11.1414C10.2205 11.6272 10.192 12.3646 10.5971 12.8837C25.236 31.6321 21.1803 63.9908 20.0062 71.4392C19.9444 71.8301 20.0552 72.2272 20.3116 72.5279C20.5679 72.8254 20.9429 73.001 21.337 73.001H40.1803C40.5427 73.001 40.8861 72.857 41.1393 72.6007C41.3924 72.3443 41.5333 71.9978 41.5285 71.637C41.0918 35.1957 23.1979 18.0012 12.3979 10.9262Z" fill="#137547"/>
<path d="M0.990319 43.6014C0.729221 43.4305 0.381091 43.4733 0.169048 43.7027C-0.042995 43.9337 -0.0572367 44.2819 0.135817 44.5287C7.07785 53.4171 5.15522 68.7586 4.59663 72.289C4.56657 72.4757 4.62195 72.6466 4.74063 72.7906C4.86248 72.933 5.04129 72.9995 5.22802 72.9995H14.1607C14.33 72.9995 14.4946 72.9457 14.6149 72.8254C14.7351 72.7051 14.8016 72.5469 14.8 72.376C14.5943 55.0992 6.11258 46.9561 0.990319 43.6014Z" fill="#137547"/>
<path d="M66.9484 32.5815C66.654 32.2635 66.1793 32.2033 65.8154 32.4407C58.7531 37.0661 47.0575 48.3091 46.7695 72.1386C46.7647 72.3712 46.8628 72.5833 47.0242 72.7526C47.1904 72.9203 47.4135 72.9995 47.6524 72.9995H59.9715C60.231 72.9995 60.4731 72.9013 60.6424 72.7035C60.807 72.5073 60.8798 72.2573 60.8418 72.0025C60.0744 67.1319 57.4222 45.9766 66.9958 33.7161C67.2617 33.3775 67.2411 32.8996 66.9484 32.5815Z" fill="#137547"/>
</svg>
