<svg width="112" height="103" viewBox="0 0 112 103" fill="none" xmlns="http://www.w3.org/2000/svg">
<path d="M6.68616 44.6699L55.3579 67.4175" stroke="#936639" stroke-width="13" stroke-linecap="round"/>
<path d="M104.758 44.6699L56.0866 67.4175" stroke="#936639" stroke-width="13" stroke-linecap="round"/>
<path d="M6.68616 72.8007L55.3579 95.5483" stroke="#582F0E" stroke-width="13" stroke-linecap="round"/>
<path d="M104.758 72.8007L56.0866 95.5483" stroke="#582F0E" stroke-width="13" stroke-linecap="round"/>
<path d="M6 23.6781L8.26699 24.1949L74.0499 24.1949L74.7157 23.6781L56.6661 0.0140146L6 23.6781Z" fill="#2A9134"/>
<path d="M6 23.678L56.6661 47.342L74.7159 23.678L42.7869 23.678L6 23.678Z" fill="#5BBA6F"/>
<path d="M80.4974 23.6782L80.9556 23.9695L104.389 23.9695L105.487 23.6782L62.4569 0.000105115L80.4974 23.6782Z" fill="#3FA34D"/>
<path d="M105.486 23.678L80.4969 23.678L62.4564 47.342L105.486 23.678Z" fill="#5BBA6F"/>
<path d="M74.7156 23.6781L56.6662 0.0144204L42.787 23.6781L74.7156 23.6781Z" fill="#054A29"/>
<path d="M56.6664 47.3418L74.7157 23.6781L42.7871 23.6781L56.6664 47.3418Z" fill="#137547"/>
</svg>
