<svg width="380" height="328" viewBox="0 0 380 328" fill="none" xmlns="http://www.w3.org/2000/svg">
<path d="M94.2388 105.799C94.2388 105.799 53.6189 119.789 45.8288 132.703C38.0387 145.618 94.2388 105.799 94.2388 105.799Z" fill="#5BBA6F"/>
<path d="M24.0552 150.58C23.7726 150.601 23.4888 150.561 23.2229 150.463C22.9571 150.365 22.7154 150.211 22.5142 150.012C21.2505 148.873 22.2833 146.721 23.1697 145.201C35.0535 124.829 94.8065 103.362 97.3438 102.458L102.808 100.512L98.1292 103.94C97.9562 104.067 80.5731 116.791 62.7779 128.778C35.1123 147.415 26.8987 150.58 24.0552 150.58ZM92.0333 106.266C76.3434 112.339 34.0605 129.895 24.6345 146.055C23.379 148.207 23.6447 148.747 23.648 148.752C23.9021 149.026 27.113 150.745 61.6243 127.512C73.6547 119.413 85.5237 110.955 92.0333 106.266Z" fill="#3F3D56"/>
<path d="M93.3584 91.8248C93.3584 91.8248 55.9256 87.977 44.57 94.5526C33.2143 101.128 93.3584 91.8248 93.3584 91.8248Z" fill="#5BBA6F"/>
<path d="M42.3493 98.114C29.2464 98.114 28.3469 96.0137 27.9347 95.0533C27.1113 93.1317 29.4028 91.3222 30.1559 90.7276C46.4036 77.8994 95.754 90.8633 97.8469 91.4211L101.861 92.4915L97.7484 93.0787C97.5829 93.1023 81.0481 95.4542 64.3618 96.9265C54.6304 97.7851 47.534 98.114 42.3493 98.114ZM53.8318 86.8099C44.6028 86.8099 36.1599 88.1468 31.2069 92.0575C29.7123 93.2372 29.3416 94.0333 29.493 94.385C29.8729 95.2705 33.4984 97.9485 64.2128 95.2382C75.6581 94.2282 87.0314 92.8035 93.0718 92.0045C85.3324 90.2232 68.5783 86.8099 53.8318 86.8099Z" fill="#3F3D56"/>
<path d="M104.071 85.2321C104.071 85.2321 85.2423 40.0223 89.8043 35.5473C94.3662 31.0723 104.071 85.2321 104.071 85.2321Z" fill="#5BBA6F"/>
<path d="M105.112 89.209L102.771 83.2269C102.714 83.0804 96.9855 68.4063 92.265 53.2991C82.5419 22.1858 86.5275 19.5289 87.8367 18.6558C88.1598 18.4242 88.5395 18.2843 88.9356 18.2509C89.3317 18.2174 89.7295 18.2917 90.0869 18.4659C97.4307 21.8879 103.711 76.5976 104.403 82.8247L105.112 89.209ZM89.126 19.939C88.9995 19.9451 88.8778 19.9894 88.7768 20.066C84.0977 23.1855 93.5833 53.8978 101.922 76.2517C99.0618 53.2023 93.7952 22.0637 89.371 20.0018C89.295 19.963 89.2113 19.9415 89.126 19.939Z" fill="#3F3D56"/>
<path d="M111.187 95.1737C111.187 95.1737 121.293 49.4767 131.88 49.4767C142.467 49.4767 111.187 95.1737 111.187 95.1737Z" fill="#5BBA6F"/>
<path d="M108.521 98.3271L109.521 94.5646C110.255 91.8055 127.704 26.9878 146.779 26.9878C149.395 26.9878 150.523 28.2147 151.009 29.2437C156.095 40.0158 115.626 89.6919 110.995 95.3206L108.521 98.3271ZM146.779 28.6827C131.554 28.6827 116.419 76.805 112.269 91.0673C125.925 74.1009 153.143 37.7342 149.476 29.9675C149.326 29.6497 148.87 28.6827 146.779 28.6827Z" fill="#3F3D56"/>
<path d="M117.119 95.6297C117.119 95.6297 151.864 73.6739 223.048 80.376C294.232 87.078 117.119 95.6297 117.119 95.6297Z" fill="#5BBA6F"/>
<path d="M114.749 96.5453L116.568 94.9862C116.937 94.6705 125.794 87.1835 143.541 81.1625C159.872 75.6207 187.096 70.4004 224.045 76.9994C239.655 79.7871 241.682 81.8643 241.546 83.6936C241.412 85.501 241.097 89.734 178.727 93.6584C148.248 95.5759 117.451 96.468 117.143 96.4766L114.749 96.5453ZM190.512 75.612C150.378 75.612 126.651 89.8722 119.771 94.6999C127.915 94.4392 153.38 93.5549 178.624 91.9664C236.581 88.3197 239.799 84.3308 239.855 83.5682C239.862 83.4867 239.819 81.5378 223.747 78.6678C212.78 76.6706 201.658 75.6481 190.512 75.612Z" fill="#3F3D56"/>
<path d="M139.153 98.2044C139.153 98.2044 200.013 97.392 203.432 103.891C206.851 110.389 139.153 98.2044 139.153 98.2044Z" fill="#5BBA6F"/>
<path d="M211.226 114.81C191.799 114.81 145.104 100.861 138.907 98.9828L133.828 97.444L139.134 97.3248C146.918 97.1506 215.317 96.0127 219.62 109.783C220.129 111.414 219.538 112.461 218.953 113.052C217.728 114.287 214.988 114.81 211.226 114.81ZM144.704 98.9419C173.251 107.309 212.89 116.762 217.749 111.858C218.012 111.593 218.279 111.174 218.003 110.289C214.945 100.506 168.295 98.7817 144.704 98.9419Z" fill="#3F3D56"/>
<path d="M127.289 104.951C127.289 104.951 164.048 121.942 156.865 127.17C149.683 132.398 127.289 104.951 127.289 104.951Z" fill="#5BBA6F"/>
<path d="M179.77 147.726C161.988 147.726 125.782 104.956 124.097 102.954L121.714 100.121L125.093 101.636C127.558 102.741 185.489 128.854 186.757 141.933C186.925 143.668 186.163 145.185 184.555 146.32C183.148 147.281 181.473 147.773 179.77 147.726ZM127.89 104.774C141.871 120.815 172.978 152.42 183.577 144.936C184.706 144.139 185.18 143.237 185.07 142.097C184.158 132.693 146.302 113.301 127.89 104.774Z" fill="#3F3D56"/>
<path d="M188.303 125.29C188.303 125.29 218.811 138.001 212.032 146.475C205.252 154.95 188.303 125.29 188.303 125.29Z" fill="#5BBA6F"/>
<path d="M131.526 115.12C131.526 115.12 195.083 184.61 189.151 188.847C183.219 193.084 131.526 115.12 131.526 115.12Z" fill="#5BBA6F"/>
<path d="M119.662 110.036C119.662 110.036 146.421 154.603 140.96 158.936C135.499 163.269 119.662 110.036 119.662 110.036Z" fill="#5BBA6F"/>
<path d="M149.95 175.631C149.616 175.628 149.285 175.573 148.968 175.466C139.158 172.243 119.386 114.355 117.164 107.764L115.188 101.903L118.668 107.017C118.771 107.17 129.172 122.478 138.402 138.316C155.465 167.594 154.05 173.352 151.502 175.135C151.049 175.458 150.506 175.631 149.95 175.631ZM120.925 113.465C128.138 133.939 142.657 171.609 149.497 173.856C149.665 173.927 149.847 173.954 150.028 173.935C150.209 173.915 150.382 173.851 150.531 173.746C151.931 172.766 153.41 167.436 136.941 139.176C131.099 129.15 124.783 119.333 120.925 113.465Z" fill="#3F3D56"/>
<path d="M108.341 108.341C108.341 108.341 84.2576 179.405 99.0361 178.672C113.815 177.94 108.341 108.341 108.341 108.341Z" fill="#5BBA6F"/>
<path d="M93.0413 190.548C90.4477 190.548 88.4532 189.535 87.1093 187.532C77.5748 173.322 105.819 110.652 107.026 107.991L108.314 105.151L108.64 108.253C108.907 110.79 115.024 170.595 101.168 186.571C98.9774 189.096 96.3714 190.432 93.4228 190.541C93.2945 190.546 93.167 190.548 93.0413 190.548ZM107.252 111.677C101.669 124.516 80.6319 174.836 88.5169 186.588C89.5911 188.19 91.1751 188.932 93.3599 188.848C95.8558 188.755 97.991 187.647 99.8877 185.461C111.47 172.105 108.341 124.581 107.252 111.677Z" fill="#3F3D56"/>
<path d="M100.023 111.874C100.023 111.874 59.5963 158.111 63.2961 162.981C66.9958 167.851 100.023 111.874 100.023 111.874Z" fill="#5BBA6F"/>
<path d="M51.134 179.837C50.5986 179.846 50.0762 179.673 49.6518 179.346C49.3637 179.112 49.1289 178.819 48.963 178.487C48.7972 178.155 48.7042 177.791 48.6902 177.42C47.6747 165.933 101.487 106.079 103.778 103.537L109.195 97.526L105.141 104.528C103.413 107.513 62.7017 177.639 51.7389 179.776C51.5397 179.816 51.3371 179.836 51.134 179.837ZM99.3208 111.095C81.4917 131.344 49.6733 169.296 50.3784 177.271C50.3722 177.41 50.3973 177.548 50.4517 177.676C50.5061 177.804 50.5885 177.917 50.6929 178.009C50.7972 178.08 50.9165 178.127 51.0417 178.145C51.1668 178.163 51.2943 178.152 51.4145 178.113C58.9909 176.636 85.4574 134.426 99.3208 111.095Z" fill="#3F3D56"/>
<path d="M87.889 80.7382C87.889 80.7382 52.644 39.1059 20.0522 43.1406C-12.5397 47.1754 87.889 80.7382 87.889 80.7382Z" fill="#5BBA6F"/>
<path d="M92.5869 82.6836L89.8129 82.0497C89.5903 81.9988 67.3146 76.8898 45.2913 70.3723C0.193794 57.0265 0.0481418 50.8897 0.000992733 48.8733C-0.0569379 46.4402 2.41998 44.5583 7.57325 43.12C26.6975 37.7818 48.2913 48.2969 63.0336 58.0601C72.9335 64.677 82.1693 72.2373 90.6115 80.635L92.5869 82.6836ZM18.5178 43.3662C14.9745 43.3483 11.4453 43.8148 8.02838 44.7528C3.90873 45.9023 1.66021 47.3514 1.69499 48.8331C1.88781 56.9694 51.9011 71.4779 87.2697 79.723C78.9088 71.7026 47.3213 43.3662 18.5178 43.3662Z" fill="#3F3D56"/>
<path d="M60.3416 77.8336C60.3416 77.8336 13.7329 74.4439 17.1227 82.9182C20.5124 91.3925 60.3416 77.8336 60.3416 77.8336Z" fill="#5BBA6F"/>
<path d="M72.2056 46.4787C72.2056 46.4787 69.6633 34.6147 65.4261 37.1569C61.189 39.6992 72.2056 46.4787 72.2056 46.4787Z" fill="#5BBA6F"/>
<path d="M115.142 54.8733C115.142 54.8733 126.77 6.00922 121.5 5.82996C116.229 5.65069 115.142 54.8733 115.142 54.8733Z" fill="#5BBA6F"/>
<path d="M112.977 65.6919L112.882 59.2025C112.852 57.1183 112.205 8.07905 118.581 1.60829C118.824 1.33603 119.121 1.11653 119.453 0.963314C119.784 0.810098 120.144 0.726409 120.509 0.717407C120.863 0.718854 121.213 0.803791 121.528 0.96533C121.843 1.12687 122.116 1.36046 122.325 1.64718C127.231 7.93091 115.864 54.1465 114.551 59.3958L112.977 65.6919ZM120.509 2.41227C120.425 2.41227 120.168 2.41227 119.788 2.79792C115.578 7.07148 114.6 35.5014 114.543 52.2212C119.211 32.2983 123.967 6.5046 120.989 2.69033C120.939 2.60705 120.869 2.53783 120.785 2.48918C120.701 2.44054 120.606 2.41407 120.509 2.41227Z" fill="#3F3D56"/>
<path d="M168.813 61.7324C168.813 61.7324 173.897 49.0209 178.982 52.4107C184.066 55.8004 168.813 61.7324 168.813 61.7324Z" fill="#5BBA6F"/>
<path d="M120.509 174.441C120.509 174.441 113.73 224.439 126.441 223.592C139.153 222.744 120.509 174.441 120.509 174.441Z" fill="#5BBA6F"/>
<path d="M155.972 163.07C155.972 163.07 149.476 152.245 149.476 144.666C149.476 144.666 138.109 132.758 141.357 129.51C144.605 126.263 151.641 138.712 151.641 138.712C151.641 138.712 138.65 124.098 142.439 121.932C146.228 119.767 158.678 136.006 158.678 136.006L163.008 133.841C163.008 133.841 153.811 111.155 160.302 110.565C163.279 110.295 170.045 132.217 170.045 132.217L177.082 150.079C177.082 150.079 179.788 156.575 178.706 160.364C178.046 162.681 177.504 165.029 177.082 167.401L155.972 163.07Z" fill="#FFB9B9"/>
<path opacity="0.1" d="M172.752 165.777C172.752 165.777 176.541 159.823 175.169 150.731C173.798 141.639 166.256 136.547 166.256 136.547C166.256 136.547 161.384 140.336 166.256 150.079C166.256 150.079 160.302 155.492 165.174 164.153" fill="black"/>
<path d="M174.917 165.777C174.917 165.777 178.706 159.823 177.334 150.731C175.963 141.639 168.421 136.547 168.421 136.547C168.421 136.547 163.55 140.336 168.421 150.079C168.421 150.079 162.467 155.492 167.339 164.153" fill="#FFB9B9"/>
<path opacity="0.1" d="M160.031 135.735L157.054 131.134C157.054 131.134 142.981 128.969 144.604 133.841C146.228 138.712 152.724 136.547 152.724 136.547L156.513 140.336L160.031 135.735Z" fill="black"/>
<path d="M162.467 135.465L158.137 129.51C158.137 129.51 144.063 127.345 145.687 132.217C147.311 137.088 153.806 134.923 153.806 134.923L157.595 138.712L162.467 135.465Z" fill="#FFB9B9"/>
<path d="M262.876 206.644L260.17 228.295L302.39 231.002V205.02L262.876 206.644Z" fill="#FFB9B9"/>
<path d="M379.794 327.893L345.555 259.413C343.509 252.64 337.122 241.608 317.275 234.52L302.39 221.928L291.294 221.529L246.908 215.034C246.908 215.034 212.807 212.869 190.614 226.401L184.66 223.695C184.66 223.695 174.917 189.052 179.247 164.153L154.348 161.988C154.348 161.988 140.815 220.988 147.311 238.851C153.806 256.713 177.623 269.704 177.623 269.704L198.733 290.814L206.853 327.622H333.514L335.53 317.965L345.422 327.622L379.794 327.893Z" fill="#CFCCE0"/>
<path d="M331.921 205.023C292.042 215.791 252.847 216.553 214.48 205.189C209.97 203.853 206.887 199.893 206.887 195.399V83.3217C206.887 78.3068 210.703 74.029 215.903 73.2135C252.096 67.5375 290.438 67.9771 330.539 73.4254C335.838 74.1453 339.772 78.4722 339.772 83.5653V195.162C339.772 199.75 336.561 203.77 331.921 205.023Z" fill="#CFCCE0"/>
<path d="M249.687 128.201C249.687 128.201 240.514 114.795 246.159 111.267C251.803 107.739 260.27 117.617 260.27 117.617C260.27 117.617 270.853 108.445 276.498 111.973C282.143 115.501 270.854 128.201 270.854 128.201C270.854 128.201 279.32 130.317 280.026 135.962C280.731 141.607 283.554 156.423 271.559 157.129C265.133 157.507 261.543 155.657 259.593 153.859C258.884 153.223 257.968 152.866 257.015 152.855C256.063 152.844 255.138 153.178 254.414 153.797C250.347 157.224 243.021 161.174 237.692 151.484C235.575 136.668 249.687 128.201 249.687 128.201Z" fill="#333D29"/>
<path d="M317.421 129.612C317.421 129.612 326.593 116.206 320.949 112.678C315.304 109.15 306.837 119.028 306.837 119.028C306.837 119.028 296.254 109.856 290.609 113.384C284.965 116.912 296.254 129.612 296.254 129.612C296.254 129.612 287.787 131.728 287.082 137.373C286.376 143.018 283.554 157.834 295.548 158.54C301.974 158.918 305.565 157.068 307.514 155.27C308.223 154.634 309.14 154.277 310.092 154.266C311.045 154.255 311.969 154.589 312.693 155.208C316.761 158.635 324.086 162.585 329.415 152.895C331.532 138.079 317.421 129.612 317.421 129.612Z" fill="#333D29"/>
<path d="M238.551 166.25C238.551 166.25 251.787 176.906 280.01 176.235C308.233 175.563 317.36 174.411 323.393 167.758C329.426 161.106 331.214 168.789 329.341 173.826C327.467 178.862 325.062 187.456 311.001 188.849C301.745 189.766 281.739 189.984 269.149 190.025C259.363 190.106 249.687 187.954 240.858 183.732C240.742 183.675 240.625 183.618 240.509 183.561C237.831 182.238 235.576 180.193 233.999 177.656C232.422 175.119 231.586 172.192 231.585 169.205C231.586 166.832 232.004 165.549 233.549 165.082C236.334 164.239 238.551 166.25 238.551 166.25Z" fill="#333D29"/>
<path d="M279.03 215.199C257.459 215.211 236.01 211.957 215.413 205.549C212.865 204.768 210.635 203.189 209.053 201.045C207.471 198.901 206.619 196.305 206.625 193.64V62.3413C206.616 59.3851 207.662 56.5228 209.575 54.2689C211.488 52.0151 214.142 50.5175 217.061 50.0454C255.931 43.6387 298.972 43.7218 344.988 50.2923C347.951 50.7297 350.658 52.2148 352.619 54.4779C354.579 56.7411 355.664 59.6322 355.675 62.6266V193.362C355.664 196.076 354.772 198.713 353.133 200.876C351.495 203.039 349.198 204.612 346.589 205.358C324.056 211.752 301.779 215.062 280.377 215.195C279.93 215.198 279.478 215.199 279.03 215.199ZM277.531 46.2217C257.329 46.1542 237.155 47.7367 217.21 50.9533C214.507 51.3905 212.049 52.7775 210.278 54.865C208.506 56.9524 207.537 59.6034 207.545 62.3413V193.64C207.54 196.109 208.329 198.513 209.795 200.499C211.26 202.485 213.326 203.947 215.686 204.67C256.811 217.472 300.768 217.405 346.337 204.473C348.754 203.782 350.882 202.326 352.4 200.322C353.918 198.318 354.744 195.876 354.755 193.362V62.6266C354.745 59.8534 353.74 57.1757 351.925 55.0797C350.109 52.9836 347.602 51.6081 344.858 51.2029C322.561 47.9545 300.063 46.29 277.531 46.2217Z" fill="#3F3D56"/>
<path d="M274.705 65.6892C264.569 65.6892 255.895 65.2345 248.793 64.6184C226.457 62.681 214.42 58.771 214.301 58.7317L214.59 57.8579C214.708 57.897 226.672 61.7798 248.916 63.7055C269.446 65.4834 303.184 65.9088 347.311 57.8422L347.477 58.7474C318.486 64.0467 293.961 65.6892 274.705 65.6892Z" fill="#3F3D56"/>
</svg>
